P1
# Created by GIMP version 2.10.22 PNM plug-in
8 256
1111111111111111111111111111111111111111111111111111111111111111111111
1111100111110010111000110110010101100000011100001111111111111111111000
0011101000111000001110111111101111111011111111111111111111111111111100
1111110100000100010101001111111111111111111111001000000110001001010110
0000010101000000110001001010110000001010111010111000001100010101000000
0100000001010110111111111111111111000000000111011100000000110111010000
0000101110110000000011101110111110010000011011111111110000110011100011
1111111110000000011111100000110011100101111101011101010111110101111101
0000000111111111001100010001010101010001111111111001010101110011100101
0111111111000101110011011101110001111111111011001100010101010100011111
1111010100010011001101010001111111110101111110111111101111111111111101
1110110111000100010101111111110101101101010001100101011111111100111011
0001000100110101111111110011101100010001001101011111111101011011000100
0100010101111111110111011101110111000100011111111101011011000100010001
0101111111110001001110110001101101011111111100110001010101010011000111
1111110001001101010001000101011111111110101110111010100100111000000000
0010100000101000001110000000000001101110010001001100010000000000111011
1010101110111010000000000011101110101011101110100000000000111011001100
1010111010100000000010001110100010101110111000000000011011100100110011
0011100000000011111111111111111111111100011001101110110001001111111111
1111111110101110111001001110111000000000001100000010100000101000000000
0011101010111010101000111000000000011010100100111011001010000000000110
1110010001001100111000000000110010101010110010101010000000001010111011
1010101010111000000000001110000001000000010000000000000101101100010001
0101010111111111111001111110111111001111111111111110111011101100101011
1000000000100011101000010011100100000000001000111010001010111011100000
0000111010101000110011101010000000001111111111111111111111111111111111
1111111111111111111111111111111111111111111111111111111111111111111111
1111111111111111111111111111111111111111111111111111111111111111111111
111111111111111111